<?xml version="1.0" standalone="no"?>
<!DOCTYPE svg PUBLIC "-//W3C//DTD SVG 20010904//EN"
 "http://www.w3.org/TR/2001/REC-SVG-20010904/DTD/svg10.dtd">
<svg version="1.0" xmlns="http://www.w3.org/2000/svg"
 width="512.000000pt" height="512.000000pt" viewBox="0 0 512.000000 512.000000"
 preserveAspectRatio="xMidYMid meet">
<metadata>
Created by potrace 1.14, written by Peter Selinger 2001-2017
</metadata>
<g transform="translate(0.000000,512.000000) scale(0.100000,-0.100000)"
fill="#000000" stroke="none">
<path d="M2187 4698 c-23 -17 -31 -55 -52 -246 -14 -122 -21 -155 -35 -162
-15 -8 -463 -171 -1300 -474 -162 -59 -305 -114 -317 -121 -12 -8 -28 -33 -34
-55 -12 -39 -8 -52 176 -557 103 -285 255 -705 338 -933 83 -228 154 -417 158
-420 4 -3 104 -273 224 -600 119 -327 225 -614 235 -637 19 -43 60 -73 101
-73 12 0 455 158 983 351 l961 350 307 -36 c331 -39 342 -39 352 12 3 16 44
352 91 748 48 396 135 1125 195 1620 69 577 105 907 99 921 -4 12 -16 25 -26
28 -10 3 -151 21 -313 40 -1097 131 -2060 247 -2090 252 -21 3 -42 0 -53 -8z"/>
</g>
</svg>
