<svg xmlns="http://www.w3.org/2000/svg" clip-rule="evenodd" fill-rule="evenodd" stroke-linejoin="round" stroke-miterlimit="2" viewBox="2 2 19.5 19.5"><path fill="#02ae4f" d="m20 20h-15.25c-.414 0-.75.336-.75.75s.336.75.75.75h15.75c.53 0 1-.47 1-1v-15.75c0-.414-.336-.75-.75-.75s-.75.336-.75.75zm-1-17c0-.478-.379-1-1-1h-15c-.62 0-1 .519-1 1v15c0 .621.52 1 1 1h15c.478 0 1-.379 1-1zm-15.5.5h14v14h-14zm2.749 7.806 2.924 2.504c.142.127.321.19.498.19.203 0 .405-.082.553-.243l4.953-5.508c.131-.144.196-.324.196-.503 0-.41-.331-.746-.748-.746-.204 0-.405.082-.554.243l-4.453 4.962-2.371-2.011c-.144-.128-.321-.19-.499-.19-.415 0-.748.335-.748.746 0 .205.084.409.249.556z" fill-rule="nonzero"/></svg>